<svg width="512" height="512" xmlns="http://www.w3.org/2000/svg">

 <g>
  <title>background</title>
  <rect fill="none" id="canvas_background" height="402" width="582" y="-1" x="-1"/>
 </g>
 <g>
  <title>Layer 1</title>
  <path fill="#ffffff" id="svg_1" d="m448.4,208l-344,0l341.2,-68c8.5,-1.6 14,-9.7 12.4,-18.1l-8.9,-45.4c-1.6,-8.4 -9.8,-13.8 -18.3,-12.2l-370.1,73.6c-8.5,1.6 -14,9.7 -12.4,18l8.9,45.4c0.6,2.8 2.1,5.2 3.9,7.2c-7.4,1.2 -13.1,7.2 -13.1,14.9l0,209.2c0,8.5 7,15.4 15.6,15.4l384.8,0c8.6,0 15.6,-6.9 15.6,-15.4l0,-209.2c0,-8.5 -7,-15.4 -15.6,-15.4zm-143.4,194.4l-50.7,-36.3l-50.7,36.3l19.5,-58.4l-50.8,-36l62.7,0l19.2,-58.4l19.3,58.4l62.7,0l-50.8,36l19.6,58.4z"/>
 </g>
</svg>